<?xml version="1.0" encoding="UTF-8"?> <svg xmlns="http://www.w3.org/2000/svg" viewBox="0 0 135.00 170.87" data-guides="{&quot;vertical&quot;:[],&quot;horizontal&quot;:[]}"><defs></defs><path fill="#787c57" stroke="none" fill-opacity="1" stroke-width="1" stroke-opacity="1" clip-rule="evenodd" fill-rule="evenodd" id="tSvgf142fdfceb" title="Path 2" d="M32.2578 2.1893C32.2273 2.8322 32.5112 2.7763 34.5467 1.7382C36.0823 0.9551 36.8008 0.7398 36.6658 1.1026C36.5535 1.4046 36.5504 1.6884 36.6591 1.7334C36.7678 1.7783 38.4683 1.4788 40.438 1.0678C44.9402 0.1281 50.4681 -0.2337 54.1388 0.1702C57.9422 0.589 57.0772 1.2008 53.0492 0.9407C51.2886 0.8271 48.9994 0.8181 47.9615 0.9205C45.5821 1.1559 39.0615 2.6743 39.0179 3.0036C38.9714 3.3554 39.3746 3.3261 44.4932 2.6068C47.016 2.2524 49.5735 2.0211 50.1768 2.093C50.5423 2.1365 50.9078 2.1801 51.2733 2.2236C50.9785 2.2929 50.6836 2.3622 50.3888 2.4315C49.9023 2.546 47.8227 2.9843 45.767 3.4049C43.7114 3.8256 40.6445 4.513 38.9516 4.9327C36.1481 5.6273 32.3827 5.6553 31.7655 4.9862C31.48 4.6772 24.4832 8.2854 23.4943 9.252C22.948 9.7852 23.2095 9.8014 25.029 9.3453C26.2353 9.0434 28.3322 8.3567 29.6893 7.8199C31.0465 7.2831 32.3456 6.9174 32.5763 7.0071C32.8067 7.0965 33.5845 7.0135 34.3042 6.822C38.5076 5.7037 39.2773 6.6741 35.2396 8.0014C31.3794 9.2705 24.881 13.6597 24.83 15.0326C24.8167 15.3879 23.5019 17.0495 21.9082 18.7245C17.2209 23.652 9.8996 36.1819 10.068 38.9878C10.0873 39.3088 9.9446 39.6526 9.751 39.7519C9.3521 39.9565 8.0395 44.7116 7.1546 49.1558C5.9717 55.099 5.9014 62.2564 6.9435 70.7108C7.2409 73.1242 7.4004 73.6437 7.9941 74.1327C8.6063 74.6367 8.6742 75.0362 8.5369 77.3222C8.3711 80.0833 8.9289 82.469 9.793 82.694C10.1847 82.796 11.1982 85.3165 14.7088 94.9196C18.519 105.342 19.068 107.049 18.6746 107.2532C18.4235 107.3834 18.1486 107.3549 18.0641 107.1903C17.8624 106.7972 13.2773 95.3737 12.7481 93.9464C11.9276 91.7332 11.8656 93.178 12.6539 96.1428C13.4003 98.9516 13.8179 99.8797 18.0193 108.0691C22.8616 117.5078 25.5364 121.7993 28.2765 124.5269C28.9726 125.22 31.6038 128.0441 34.1236 130.8029C36.6432 133.5619 39.0028 136.0034 39.3674 136.2277C39.7319 136.4528 41.9604 138.4142 44.3194 140.5866C47.6073 143.6142 49.0749 144.7388 50.6053 145.403C51.7036 145.8796 53.6195 146.9624 54.8627 147.8091C57.9507 149.9121 64.3966 153.2456 68.695 154.9629C70.6524 155.745 73.4112 156.846 74.8253 157.4097C77.556 158.4979 78.0809 159.0013 76.185 158.7138C74.4641 158.4528 74.3381 158.73 75.8037 159.5524C77.4368 160.4686 79.1426 160.5562 78.7042 159.7018C78.5135 159.3299 78.6078 159.1187 78.9735 159.0996C79.283 159.0835 83.5895 158.8557 88.5431 158.5934C91.5452 158.4344 94.5473 158.2754 97.5494 158.1163C99.2913 157.2974 101.0332 156.4784 102.775 155.6594C108.6758 152.8847 111.7225 150.7795 113.9638 147.9282C114.7885 146.8793 115.8213 145.7046 116.2588 145.3178C117.4932 144.2263 116.6417 145.4737 114.2782 148.219C113.1395 149.5417 112.1692 150.8386 112.1223 151.1009C112.0708 151.3873 113.237 150.8264 115.0376 149.6991C117.7331 148.0117 118.1751 147.5794 119.3828 145.4499C120.1219 144.1459 120.6623 142.9528 120.5828 142.7978C120.5035 142.6433 120.1435 142.5501 119.7826 142.5912C118.4064 142.7466 119.2316 141.2364 122.7197 137.2153C123.5155 136.2978 124.0289 135.1348 124.3245 133.5808C124.5632 132.3237 125.1488 130.3162 125.6249 129.1195C126.9611 125.7622 128.0935 120.5905 129.2307 112.6539C129.8018 108.6655 130.3544 105.4483 130.4588 105.504C130.563 105.5599 130.7539 107.1833 130.8829 109.112C131.0115 111.0409 131.2198 112.6735 131.3455 112.7409C131.9043 113.0398 131.854 105.5814 131.2458 97.9054C130.7351 91.4625 130.1944 89.2623 128.5596 86.9754C127.5392 85.5476 127.3806 85.1413 127.2587 83.6414C127.1232 81.9776 124.3206 73.5215 123.0968 71.0844C122.5427 69.9813 121.6636 69.2179 121.2131 69.449C121.0981 69.5081 121.2665 70.0685 121.5877 70.6942C122.494 72.4609 124.461 78.6061 125.4623 82.7983C126.7277 88.098 128.4232 99.4294 128.5964 103.7438C129.0337 114.6439 126.6689 126.0407 122.3648 133.7767C120.7719 136.6388 115.0351 144.8614 114.7407 144.7042C114.2919 144.4637 115.0715 142.5166 116.7367 139.7181C119.1124 135.7249 119.8493 133.9734 120.289 131.2771C120.7347 128.5436 121.3694 126.9784 122.7639 125.1751C123.6886 123.9788 123.9296 123.0546 124.3941 118.9257C124.6942 116.2606 125.1043 111.3104 125.306 107.9252C125.5077 104.5397 125.8324 100.8286 126.0276 99.6785C126.497 96.9123 125.7925 91.5101 124.7568 89.9348C124.2198 89.1181 123.8184 87.7927 123.3733 85.3668C122.4699 80.4438 120.6967 74.3087 118.6935 69.1773C116.2651 62.9558 111.2039 53.6485 107.08 47.8194C102.9154 41.9332 101.9323 40.8008 99.1025 38.6307C96.6724 36.7672 94.8441 34.8156 93.1465 32.2733C92.0965 30.7002 86.3362 26.8997 75.8064 20.8322C73.8353 19.6962 71.7269 18.3399 71.1216 17.8185C69.5835 16.4933 64.9347 15.1525 63.6341 15.6593C63.0236 15.8971 61.2692 15.787 59.3179 15.3884C50.3037 13.5466 43.1903 14.4879 35.2145 18.5787C31.5025 20.4821 25.7738 24.5591 24.454 26.2358C24.2222 26.5305 23.8595 26.4139 23.3249 25.8733C22.8474 25.3902 22.6388 25.0252 22.794 24.9455C22.9348 24.8731 23.1372 24.9843 23.2439 25.1921C23.5787 25.845 25.4142 24.6014 27.7024 22.171C30.5243 19.1733 35.6933 16.0288 40.2703 14.5253C46.476 12.4868 54.7865 12.0698 63.2635 13.3724C76.5496 15.4142 89.5927 23.7616 101.8696 38.0809C106.4023 43.3676 107.0306 44.0454 106.8938 43.5037C106.83 43.251 105.4783 41.4142 103.8902 39.4217C101.1204 35.9467 100.0124 34.1652 102.0264 36.4247C102.9637 37.4762 102.9821 37.4787 102.6933 36.5075C102.444 35.6698 103.016 36.1228 106.2512 39.3252C108.5882 41.6386 110.5227 43.8248 111.1644 44.8771C111.5173 45.4557 111.8702 46.0343 112.2231 46.6128C111.6909 46.0429 111.1587 45.4729 110.6264 44.9029C109.644 43.8502 109.0062 43.3756 108.9673 43.6685C108.9053 44.1386 112.8713 50.6793 116.4003 55.9266C116.9571 56.7547 117.514 57.5829 118.0709 58.411C117.7422 57.6249 117.4135 56.8389 117.0849 56.0529C116.5422 54.7558 115.5971 52.6629 114.9844 51.402C114.017 49.4116 113.973 49.2261 114.6504 49.9951C115.1191 50.5274 115.5297 50.7323 115.68 50.5086C115.8172 50.3035 116.0737 50.255 116.2491 50.4007C116.4252 50.5467 118.7319 54.836 121.3759 59.9324C126.1572 69.1481 126.1853 69.2116 126.5622 71.5839C126.7706 72.8958 127.3346 74.9354 127.8155 76.1166C128.2959 77.2973 128.677 78.5921 128.6624 78.9935C128.6328 79.7863 129.1222 82.2657 130.0312 85.929C130.559 88.0557 130.6129 88.1678 130.6493 87.2202C130.6715 86.6488 130.678 85.7864 130.6636 85.3035C130.6079 83.4076 131.496 86.8665 132.3023 91.6858C134.3911 104.1721 134.2557 102.884 134.2061 109.8035C134.191 111.9116 134.2157 114.2414 134.2609 114.981C134.3343 116.1917 134.3741 116.2786 134.6586 115.8543C134.9286 115.4514 134.9758 115.5718 134.9861 116.6865C135.0025 118.4734 134.1623 123.8838 133.5168 126.1478C133.145 127.4516 133.1675 126.5328 133.5916 123.0863C133.9246 120.3778 134.1144 118.2043 134.0131 118.2562C133.9116 118.3083 133.5363 119.8437 133.1785 121.6681C131.952 127.9233 131.4762 129.5809 130.5576 130.7942C130.0518 131.4621 129.4485 132.9809 129.2174 134.1686C128.9263 135.6633 127.707 138.2631 125.2586 142.6105C123.3124 146.0655 121.4547 149.1682 121.1295 149.5049C120.8045 149.842 120.4759 150.72 120.3993 151.4562C120.2715 152.6852 119.8636 153.1288 115.4161 156.8774C110.6705 160.8774 109.3309 162.2881 110.8045 161.7351C113.3046 160.7963 106.4693 164.595 102.9343 166.1088C96.0511 169.0563 92.2897 169.4828 82.7627 168.3966C79.9224 168.0727 77.1809 167.878 76.6706 167.964C76.0727 168.0646 75.4021 167.8005 74.7846 167.2217C74.2265 166.6986 73.0997 166.2079 72.087 166.0466C71.1301 165.8941 69.7956 165.5323 69.1215 165.2427C68.4473 164.9528 67.086 164.5871 66.0968 164.4301C65.0389 164.2621 62.6851 163.2546 60.3818 161.9842C58.2277 160.7961 55.0201 159.0361 53.2541 158.0732C44.8319 153.4812 43.0531 152.2089 36.8756 146.355C33.3712 143.0341 30.7736 140.3391 30.4233 139.6606C29.2892 137.4637 28.0423 135.8055 27.7981 136.1693C27.6276 136.4238 26.9439 135.5297 25.3091 132.9142C24.0693 130.9305 23.0682 129.2076 23.0844 129.0856C23.1003 128.9634 24.5124 130.621 26.2218 132.7686C27.9308 134.9163 29.4741 136.7115 29.6506 136.7576C30.1528 136.8883 29.7409 136.2702 27.1998 133.0822C20.0543 124.1181 13.0033 112.4532 8.4253 102.0217C7.2517 99.3478 6.1335 97.0753 5.9399 96.9718C5.7464 96.8682 4.688 93.8624 3.5873 90.2923C2.4866 86.7216 1.7746 84.0688 2.0046 84.3968C2.2351 84.7249 3.1868 87.53 4.1204 90.6308C5.4776 95.1401 5.9375 96.3463 6.4192 96.6587C7.2867 97.2213 7.1585 96.2616 6.0836 94.1431C5.0346 92.0759 4.5525 90.5565 4.981 90.6681C5.3492 90.7642 2.441 79.3133 1.7599 77.9859C1.4751 77.4307 1.4355 76.6495 1.6558 75.9308C1.8705 75.2287 1.8061 73.7886 1.4924 72.2826C1.2074 70.9137 0.9578 69.2453 0.9383 68.5756C0.9186 67.9056 0.6634 66.2907 0.3708 64.9866C0.0502 63.5568 -0.0784 61.1763 0.0472 58.99C0.1616 56.9957 0.3133 53.1863 0.3842 50.5245C0.6462 40.7083 1.0843 37.8383 3.3068 31.3866C4.9156 26.7156 5.6695 25.0719 6.7363 23.9087C7.4881 23.0891 8.1256 22.1692 8.1529 21.865C8.1881 21.4694 8.0923 21.4641 7.8161 21.8468C7.5609 22.2007 7.4536 22.2099 7.4997 21.8741C7.5788 21.2998 11.8743 16.5489 12.171 16.708C12.2769 16.7644 11.5041 18.2631 10.4533 20.0376C8.6516 23.0819 8.0712 24.3849 8.6506 24.0852C8.7868 24.0145 9.628 22.7381 10.5197 21.2484C15 13.7639 22.6929 6.3802 29.8211 2.7233C31.9885 1.6114 32.2886 1.5458 32.2578 2.1893ZM19.0346 13.4512C18.9492 14.1676 11.3946 24.6998 11.0849 24.534C10.6991 24.3276 13.8827 18.779 15.6687 16.5447C17.6568 14.0578 19.1231 12.7103 19.0346 13.4512ZM25.8926 10.3907C25.7785 10.6994 23.3092 13.2765 20.4056 16.1176C17.5019 18.9587 15.0158 21.4308 14.8815 21.6114C14.7469 21.7922 14.5549 21.7799 14.4549 21.5849C14.2149 21.1171 17.6531 16.859 20.3138 14.3287C22.8223 11.9439 26.2003 9.5593 25.8926 10.3907ZM40.1011 7.4955C40.8264 7.344 40.3817 7.6151 38.9687 8.1862C37.6891 8.7028 36.5607 9.0879 36.4615 9.0415C36.1551 8.8984 38.8369 7.7593 40.1011 7.4955ZM59.2062 0.9425C59.8888 0.9184 64.7292 2.3696 64.8676 2.6394C64.912 2.7259 64.311 2.8372 63.5316 2.887C62.0297 2.9831 60.442 2.5622 58.952 1.6735C58.0226 1.1192 58.0704 0.982 59.2062 0.9425ZM37.6647 12.107C40.1292 11.2469 45.731 10.1274 46.6386 10.3139C47.0595 10.4002 47.1006 10.5451 46.8545 11.0705C46.6359 11.5364 46.0643 11.7733 44.8358 11.9076C42.8972 12.1192 32.4932 17.0973 28.9245 19.5205C27.4145 20.5458 27.019 20.7138 27.487 20.1314C27.8417 19.6893 28.1177 19.1234 28.1004 18.874C28.0829 18.6247 28.0335 18.4414 27.9904 18.4669C27.9475 18.4927 26.7899 19.5134 25.4178 20.7353C24.0457 21.9571 22.7423 23.0393 22.5213 23.1397C21.5382 23.5857 26.0907 18.3325 27.7096 17.1526C29.944 15.5242 34.5198 13.2048 37.6647 12.107ZM37.9926 12.7236C38.5402 12.5511 39.1809 12.5102 39.4163 12.6328C39.9237 12.8976 36.0677 14.9441 32.274 16.4235C30.6308 17.0641 29.8287 17.2283 30.0603 16.8766C30.4329 16.3106 36.2081 13.2872 37.9926 12.7236ZM51.9606 6.3802C52.7622 6.304 55.0152 6.5473 56.9674 6.9211C60.6897 7.6336 61.4828 7.5007 59.2568 6.537C58.5282 6.222 58.0628 5.897 58.2227 5.815C58.936 5.4491 62.3898 6.3567 64.3155 7.4166C66.7533 8.7584 71.7801 10.3847 74.7606 10.7965C76.1958 10.9945 77.0561 11.3512 77.6158 11.9792C78.0564 12.474 79.5195 13.4944 80.8671 14.2471C84.4111 16.2267 90.414 20.3515 94.3902 23.5397C101.4797 29.2241 105.0341 33.063 113.2682 43.9286C117.4341 49.4257 119.3733 52.5324 120.8863 56.1312C122.3668 59.6537 121.3932 58.6165 119.1243 54.2551C117.0487 50.2655 113.6357 45.135 110.8549 41.8252C108.6192 39.1637 107.5781 38.2576 108.6719 39.9253C109.7366 41.5483 108.4595 40.3516 105.5745 37.0228C98.5141 28.8765 93.6948 24.3552 88.0598 20.5912C74.7876 11.726 62.5935 7.3052 52.2611 7.6127C50.8189 7.6557 49.6267 7.514 49.6115 7.298C49.5755 6.785 50.177 6.55 51.9606 6.3802ZM26.6531 21.3722C26.5271 21.5696 26.2329 21.7206 25.9993 21.7077C25.7655 21.6953 25.8688 21.534 26.2284 21.3495C26.5882 21.165 26.7791 21.1754 26.6531 21.3722ZM69.2394 4.0703C71.1039 4.7059 73.6884 5.5481 74.9832 5.9421C76.2778 6.3363 77.4197 6.6938 77.5203 6.7371C77.6216 6.7802 77.6728 7.0517 77.6349 7.34C77.5468 8.0052 73.8901 6.9368 71.9585 5.6814C71.2056 5.1921 70.1026 4.8061 69.5076 4.823C68.4677 4.8535 65.7568 3.6201 65.8192 3.1451C65.8363 3.0185 67.375 3.4348 69.2394 4.0703ZM65.4365 10.5104C67.6791 11.0545 71.3682 12.7345 71.6881 13.3577C71.7792 13.5357 70.415 13.1228 68.6566 12.4401C62.2858 9.9673 61.6656 9.5957 65.4365 10.5104ZM12.7188 36.3577C12.8804 36.9981 9.5927 47.5869 9.2837 47.4214C8.859 47.1943 9.0813 46.2059 10.5973 41.582C12.5664 35.5757 12.5388 35.6442 12.7188 36.3577ZM76.7488 18.866C83.1544 21.8938 84.8289 22.8861 84.7347 23.5983C84.6824 23.9965 83.5902 23.4519 78.6031 20.5402C74.0794 17.8993 73.3939 17.2805 76.7488 18.866ZM89.747 27.2153C93.5504 30.1796 99.0365 35.3016 98.9673 35.8241C98.9489 35.9624 96.3664 33.8867 93.2283 31.2112C90.0899 28.536 87.0079 25.9126 86.3795 25.3819C85.7515 24.8511 85.3618 24.3525 85.5141 24.2744C85.6666 24.1962 87.5715 25.5198 89.747 27.2153ZM110.2248 47.4117C110.862 48.2596 112.0253 50.02 112.8102 51.3239C113.5954 52.6277 114.6365 54.3493 115.1239 55.1493C115.9848 56.562 117.5159 60.1049 117.1902 59.9306C116.9198 59.786 109.3338 46.9288 109.1957 46.3806C109.1247 46.0996 109.5881 46.5636 110.2248 47.4117ZM111.6753 51.791C111.824 51.9143 112.7557 53.4232 113.7457 55.1446C115.8397 58.7842 115.0286 58.1554 112.5385 54.2082C111.187 52.0659 110.8421 51.0997 111.6753 51.791ZM21.2798 111.2412C21.961 111.981 23.1506 113.6802 23.923 115.0168C24.6959 116.3536 25.8061 118.2515 26.3901 119.2346C27.8462 121.6845 27.4046 121.3052 25.2071 118.2176C24.1935 116.7936 23.2135 115.5893 23.0294 115.5417C22.6448 115.441 19.6185 110.1101 19.873 109.9814C19.9655 109.9345 20.5986 110.5014 21.2798 111.2412ZM119.3338 65.1623C119.7069 65.8898 119.8057 66.2148 119.5535 65.8848C119.301 65.5551 118.9956 64.9597 118.8749 64.5624C118.7541 64.165 118.9605 64.4348 119.3338 65.1623ZM22.8171 123.9164C25.2718 126.9984 29.8602 133.5085 29.5143 133.4186C28.5362 133.1637 20.6559 122.4695 21.2295 122.1751C21.308 122.1349 22.0222 122.9185 22.8171 123.9164ZM124.4999 80.93C124.7133 81.3765 124.6971 81.498 124.4592 81.2395C124.2436 81.0055 124.0857 80.6746 124.1082 80.5046C124.1306 80.3346 124.3067 80.526 124.4999 80.93ZM129.4829 91.2361C129.9496 92.1457 130.5269 98.1907 130.2861 99.6418C130.0415 101.115 129.9651 101.2466 129.8924 100.3213C129.8425 99.6904 129.6563 97.3695 129.478 95.1635C129.184 91.5229 129.1851 90.6555 129.4829 91.2361ZM127.5792 105.9235C127.6809 113.0652 127.5841 114.8714 127.0851 115.1275C126.5658 115.3939 126.564 115.3905 126.6543 114.2744C126.7041 113.6579 126.8652 110.998 127.0123 108.3625C127.1592 105.727 127.3389 103.5407 127.4114 103.5034C127.4842 103.4661 127.5599 104.5552 127.5792 105.9235ZM63.9808 150.7934C69.036 152.8065 70.6679 153.6286 69.5377 153.5922C68.8008 153.5686 58.6809 149.5884 58.4871 149.2459C58.1048 148.5707 59.1175 148.8562 63.9808 150.7934ZM126.4422 119.12C125.794 123.0315 124.5428 127.4435 123.3843 129.9038C122.4863 131.81 122.4504 131.8433 122.7109 130.5233C123.2482 127.8031 126.4189 116.4246 126.6704 116.3127C126.8113 116.2503 126.7084 117.5137 126.4422 119.12ZM131.2072 117.665C131.2326 119.2404 130.8725 120.8223 130.4375 121.0453C130.1113 121.2126 130.3492 118.8891 130.8159 117.3504C130.9381 116.9473 131.0603 116.5442 131.1825 116.1411C131.1907 116.6491 131.1989 117.1571 131.2072 117.665ZM64.9248 157.3154C67.4707 158.4213 68.4796 159.037 68.0816 159.2411C67.7065 159.4336 62.2233 157.2015 61.9994 156.7649C61.5938 155.9743 62.025 156.0558 64.9248 157.3154ZM66.3657 156.5064C67.6526 157.1312 68.355 157.6388 68.1171 157.7718C67.6751 158.02 64.1208 156.1913 64.1798 155.7461C64.2005 155.5909 65.184 155.933 66.3657 156.5064ZM132.1559 122.4886C132.0674 123.356 131.8805 124.1239 131.7413 124.1954C131.3985 124.3712 131.5877 122.3983 131.9926 121.5738C132.2244 121.101 132.2713 121.3629 132.1559 122.4886ZM71.722 158.3284C72.0245 158.407 72.2496 158.6415 72.2219 158.8494C72.1948 159.0572 71.9331 159.0992 71.6409 158.9429C70.9527 158.5745 71.0098 158.1428 71.722 158.3284ZM89.7602 156.2638C93.9677 156.4974 96.8552 155.5844 103.3152 151.9782C106.4257 150.242 109.3918 148.4836 109.9068 148.0706C110.6395 147.4823 110.7567 147.4646 110.4459 147.9877C110.2273 148.3554 108.8685 149.619 107.4261 150.7959C102.5524 154.7716 95.0485 157.1759 88.1276 156.9783C87.6207 156.9639 87.1288 156.8026 87.0351 156.6203C86.7887 156.1398 87.0095 156.1111 89.7602 156.2638ZM89.2427 160.4852C90.8718 160.3296 91.4672 160.6099 90.5297 161.091C89.8065 161.4618 87.5328 161.4544 87.341 161.0804C87.193 160.792 87.7038 160.6321 89.2427 160.4852ZM128.8408 143.7798C128.777 144.2224 126.3668 147.9565 126.0346 148.1269C125.6072 148.3461 126.1617 146.1179 126.6978 145.462C127.7764 144.1429 128.9171 143.2475 128.8408 143.7798ZM86.5785 170.3628C88.9606 170.4793 90.8976 170.6633 90.8835 170.7715C90.8583 170.9618 82.0597 170.7969 81.679 170.599C81.0347 170.2639 82.8097 170.1784 86.5785 170.3628ZM124.0925 151.2691C123.7984 151.77 123.1426 152.5202 122.6352 152.9366C122.0111 153.4487 122.1391 153.1697 123.0299 152.0759C124.5504 150.2094 124.8476 149.9833 124.0925 151.2691ZM118.3853 157.5128C117.9031 158.1783 116.6199 159.0743 114.9799 159.8914C114.1027 160.3282 113.2255 160.7651 112.3482 161.2019C113.2171 160.6414 114.0861 160.0809 114.955 159.5203C116.3886 158.5959 117.9211 157.5256 118.3604 157.1422C119.1487 156.4538 119.1492 156.4588 118.3853 157.5128Z"></path></svg> 